<svg xmlns="http://www.w3.org/2000/svg" viewBox="258.6 178.5 127.9 127" width="{{size}}" height="{{size}}"><g fill="none" stroke="currentColor" stroke-linecap="round" stroke-linejoin="round" stroke-width="5.1"><path d="m267.8 234.4-.6.5-.7.8-.6.7-.8 1-.7 1.1-.5.9-.3.7-.3 1-.1 1.1v2.2l.3 1.1.3 1.2.4 1 .4.8.5.5.6.6 1 .4 1.3.3 1.3.1h1.8l.6-.2.7-.2 1.1-.5 1.2-.6.9-.5.8-.7q.5-.4.9-1M366.4 245.8l.8.7.5.5.3.2.3.2 1.2 1 2.1 1.3 1.8.8q.5.3 1.1.3l1.5-.1 1.4-.4 1-.5.8-.5.2-.2.4-.3.5-.6.5-.8.5-.8.4-.9.3-1.4v-1.7l-.5-1.6-.9-1.6-1-1.5-1-1.2-.8-.6M268.5 233.7l4-4 1.9-2.1 1.6-1.8q.8-1 1.6-1.7l1.3-1.4 1.6-1.6 2.1-2.1 2.3-2.3 1.8-2 1.6-1.5 1.5-1.5 2.1-2 2.2-2.3 1.7-1.8 1.6-1.7 1.6-1.7 1.4-1.6 1.7-1.7 1.4-1.5 1.8-2 2.4-2.6 2.4-2.6 2.9-3.3M276.3 247.7l5.6-6.7M282.6 240.3l1.5-1.6 1.8-2 1.7-2 1.2-1.2 1-1.1 1.2-1.4 1.3-1.3 1-1.2 1-1 1-1.3 1.1-1.1.8-1 .7-.7 1-1 1.1-1.4 1.6-1.7 1.4-1.6 1.3-1.3 1.1-1.2 1.3-1.4 1.4-1.5 1.3-1.3 1.4-1.4 1.5-1.5 1.2-1.3 1.6-1.5 1.8-2 1.4-1.4 2.3-2.3M330.9 187l1.3 1.5.9 1 .8 1 1.7 1.9 2.1 2.3 2 2.3 1.8 1.9 1.1 1.2 1 1.1 1.4 1.4 1.5 1.5 1.6 1.6 1.4 1.4 1 1 1 1 1.5 1.5 1.7 1.7 1.4 1.4 1.3 1.1 1 1 1 1 1.3 1.3 1.4 1.3 1.2 1.2 1 1 .8.8.8.7 1 1q.5.7 1 1l.5.7.6.7.8.8 1 1 1.2 1.4 1.5 1.7 1.9 2 2 2.3M321 199.6l.5.5 1 1.2 1.2 1.1 1.3 1.3 1.1 1.2 1.1 1 1 1 1 1 1.6 1.6 1.7 1.8 1.2 1.2 1 1 1.2 1.2 1 1 1 1 1.6 1.6 1.4 1.3.9.8 1 1 1.1 1.1 1 1 .8.8 1.2 1.1 1 1 1 1 1.4 1.3 1.4 1.4.5.6.8.8 1.7 1.8 2 2 1.6 1.7.7.8.7.8 1 1 1 1.2 1.3 1.3 1.4 1.6 1.7 1.9M277.9 246.7v9.6l-.1 1.4V280.5l.1 2v3l-.1 2.7M277.7 290.2v.1M364.5 290.9v-1.6l.1-1.6v-1.5l.1-1.5V283l.1-2V275.7l.1-2.8V244.4M353.7 300.5h0M351.6 300.5l-5-.2h-2.4l-2.5-.1h-8.2l-2 .2h-4.3l-5.2.1-2.4.1h-4.7l-3.8.2H292l-1.4-.1h-.8l-1-.2-1.2-.1-.8-.1-.8-.2"/><path d="m313 186.9.5-.4.3-.3.6-.4.5-.4.6-.4.6-.3.5-.3.5-.2.6-.3 1-.4 1-.3.9-.1h3.7l1.1.3.6.2.6.3.8.4.5.3.4.2.3.3q.2 0 .5.3l.6.5.2.2 1 .9M277.8 288.2v.8q0 3.3.2 4l.3 1.2.1.5.4.8.5 1 .6.8.7.7.5.4.5.3.3.2.6.3.6.2.8.3 1.2.3h.4l.5.1M353.7 300.5h1.1l2-.2 1.8-.2.8-.2.4-.2.6-.3.8-.4.4-.3.4-.3.4-.4.2-.2.3-.3.3-.5.3-.5.3-.7.3-1q.2-.4.2-1l.2-1.7V291M330 244.7h-17.7l-1 .1M329.9 273.6h-7l-1 .1h-8.6l-2.3.1h-.2M305.7 251.5v6.1l.1 1.6v4.5l.1 1.4v2M336 251.9V267.4"/><path d="m312.5 244.9-.3-.2h-1.4l-.7.3-.6.4-.4.2h-.2l-.2.2-.4.4-.4.3q-.2 0-.4.3l-.5.5-.3.4-.2.4-.1.3-.1.2-.1.3v.2h-.1l-.2.6v.5l-.1.3-.1 1M306 267v1.6l.1.4v.4l.2.4v.5l.2.3v.2l.1.3.2.3v.2l.2.1.1.2.2.3.3.3.4.3.5.3.3.2.5.1.5.2h.4q.2.2.3.1 0 0 0 0l.3.1M329.3 244.7h2.3l.2.1h.2l.4.2.3.2.3.1.2.1.3.2.3.1.2.2.3.1.2.1.3.2.2.3.2.3.2.3.1.4.1.6.1.7v.6l.1.6.1.6v.2q0 0 0 0v.3l.2.7M336 267.4h0l-.1.4v1.1l-.2.6v.7l-.1.5-.1.4-.1.3v.3l-.2.3-.3.4-.4.4-.3.1q0 0 0 0l-.4.2-.3.2-.3.1-.3.1h-.1l-.1.1H331.8l-.6.1h-.4q0 0 0 0h-.5l-.6-.1M320.4 244.7v1.7l.1.3V247l.1.7v1.3l.1 1.3V257.2l.1.8v1.5l.1 1v5.3l.1.5v2.1l.1.2V270l.1 1.6"/><path d="m320.8 258 .6 1.6h4l3.2-.2h5.7l1.8.2"/></g></svg>