<svg viewBox="0 0 32 32" xmlns="http://www.w3.org/2000/svg" fill="currentColor" width="{{size}}" height="{{size}}"><path d="M16 0c-1.1 0-2 1-2.9 1.7-2.4 2.3-4.5 5-7 7.2a73.1 73.1 0 0 1-4.5 4.4C1 13.9.2 14.7.1 15.8c-.2.9 0 2 .9 2.4a4.1 4.1 0 0 0 2.8.1c0 2.5 0 5-.2 7.6a8.5 8.5 0 0 0 1 4.6c.4.6 1.2 1 2 1 1.4.3 2.8.2 4.2.3 4 0 7.9-.3 11.8-.1 1 0 2.2 0 3.2-.2a2.2 2.2 0 0 0 1.5-2.2c.2-3.7 0-7.5.1-11.3 1 1.1 3 1.3 4 0 .8-.9.8-2.3 0-3.3-.7-1-1.7-1.8-2.6-2.8C25.1 8.4 22 4.5 18.2 1c-.6-.5-1.3-1-2-1zm.1 1.3c.8.3 1.5 1 2.1 1.5 3.6 3.7 7 7.5 10.8 11.1.6.7 1.5 1.4 1.7 2.4 0 .7-.6 1.5-1.4 1.3-.8 0-1.2-1-1.8-1.4l-2.3-2.4c-2.3-2.3-4.6-4.5-6.8-6.9a19 19 0 0 0-2.2-2.1c-.7-.5-1.6 0-2 .6-.9.8-1.6 1.7-2.4 2.6-2.7 3-5.2 6.2-8.2 8.9-.6.3-1.5.6-2 0-.5-.5-.2-1.3.1-1.8 1-1.2 2.4-2.2 3.5-3.3 2.2-2.3 4.5-4.5 6.6-6.9a29 29 0 0 1 3.6-3.4l.8-.2zM15.5 6c1.2 1 2 2.2 3.2 3.2l6.3 6.3c.4.6 1 1 1 1.7.2 1.3 0 2.6.1 3.8 0 2.9.2 5.7 0 8.5-.2.7-1 1-1.6 1-2.4 0-4.8-.2-7.1-.1-2.8 0-5.5.3-8.2.1-1.1 0-2.3 0-3.3-.4-.8-.7-.9-1.8-1-2.8l.2-6v-4c3-3 5.8-6.2 8.7-9.4.5-.6 1-1.3 1.7-1.9zm-1 9.9c-1.1 0-2.3.2-3 1-.8 1.3-.6 3-.5 4.4 0 1 0 2 .7 2.8 1 .9 2.4 1 3.6 1h3a2 2 0 0 0 1.7-1.6c.4-1.3 0-2.7.2-4 0-1.1 0-2.3-1-3-1.2-.7-2.6-.5-4-.6h-.8zm0 1.3c.5.3.2 1.2.3 1.7l.2 4c0 .4.1 1-.5.8a3.6 3.6 0 0 1-1.9-.5c-.5-.7-.2-1.5-.3-2.3a6 6 0 0 1 .2-3c.4-.7 1.3-.7 2-.7zm1.6 0c.8 0 1.7 0 2.5.5.4.6.3 1.5.1 2.2-.6.4-1.3 0-2 .1-1 0-.4-1.3-.6-2v-.7zm2.7 4.1c0 .8.2 1.6-.3 2.2a3 3 0 0 1-2.2 0v-1.8c.1-.7 1.1-.2 1.7-.4h.8z"/></svg>