<svg xmlns="http://www.w3.org/2000/svg" viewBox="0 0 32 32" fill="currentColor" width="{{size}}" height="{{size}}"><path d="M12.3 0c-1 0-2.1.2-2.8 1-2.3 2.5-3.6 5.3-5.4 7.8l-1.9 2.8a13.6 13.6 0 0 0-2 3.8 4.2 4.2 0 0 0 1.2 4.2 19.3 19.3 0 0 1 3.2 4.2l3.1 4.4c.8 1.2 1.6 2.6 3 3.3.9.7 2.2.7 3.1 0 1-.6 1.5-1.9 1.5-3a15.6 15.6 0 0 0-3.7-7c-.5-.8-1-1.5-1.7-2.1.6-.2 1.2 0 1.8 0h16.8c1.2 0 2.6-.6 3.1-1.8.3-1 .4-1.9 0-2.7-.5-1.5-2-2.3-3.5-2.3-5.1.2-10.3-.1-15.2 0a85 85 0 0 0-3.6 0L14 6c.6-1 1.4-2 1.2-3.2-.1-1-.6-2-1.6-2.4-.4-.3-.9-.4-1.4-.4zm0 1.3c.8 0 1.5.6 1.6 1.3.2.7 0 1.3-.4 1.9C12 7 10.3 9 8.7 11.2c-.5.6-1 1.3-1.1 2.1.1 1 1.2.7 1.8.7H28c1 0 2.1.4 2.4 1.4a2.6 2.6 0 0 1 0 1.8c-.7.8-1.9 1-2.8 1L13.2 18c-1.6 0-3.3-.2-5 0-.8.4-.2 1.4.3 1.8l1.5 1.6c1.2 2.1 3.6 4.2 4 6.4.1.8 0 1.9-.8 2.5a1.6 1.6 0 0 1-2 0c-1.2-.7-1.8-2-2.5-3.1L6 23.7a33.3 33.3 0 0 0-4.2-5.5c-.8-1-.6-2.4 0-3.4A19.5 19.5 0 0 1 4 11.2l1.7-2.6c1.6-2.4 3-5 4.9-6.9.4-.3 1-.3 1.6-.3z"/></svg>