<svg xmlns="http://www.w3.org/2000/svg" viewBox="60.3 179.6 126 126.6"  width="{{size}}" height="{{size}}"><g fill="none" stroke="currentColor" stroke-linecap="round" stroke-linejoin="round" stroke-width="5.1"><path d="M168.9 233h2.5l1.5.2 1.3.3 1 .3 1 .4.7.3.4.2.3.2.6.5.7.6.6.7.6.7.3.6.4 1 .4 1.1.2 1 .2 1 .1.8v.7l.1.5V244.7l-.1 1-.2 1.2-.3 1.1-.5 1.2-.6 1-.6 1-.5.5-.6.5-.6.3-.6.4-.6.2-.6.2-.8.2-1 .2-.8.1-1 .1H168M100 187.7l-.5.3.5-.3 1.2-.8 1-.9 1.2-.8q.5-.4 1.3-.6l1.3-.3 1.3-.1 1.1-.1h1.9l1 .2 1 .3.9.3 1.2.9 1.3 1.1 1 1.2.8 1 .4.7.2.7.3 1 .3 1.2.1 1.3v1.5q0 .7-.2 1 0 .4-.2.7 0 .3-.2.5l-.1.3-.7.7M117 284.2l.3.5.6.8.4.6.3.6.1.3.2.5.2 1 .1 1 .1 1v1l-.1.9-.2 1-.3 1-.3 1-.2.6-.5 1-.6 1.1-.4.5-.5.5-.6.6-.5.3-.3.2-.6.3-.7.3-.8.3-.6.2h-.3q-.2.2-.6.2l-.9.1h-1l-.9.1h-1l-.8-.2h-.6l-1-.4-1.8-.7-1.2-.8-.7-.6-.4-.5-.5-.8-.6-1M69.1 253.9l-.8-.9-.8-1.4-.8-1.7-.7-1.2-.2-.5-.2-.3-.3-.8q-.3-.7-.3-1.1l-.1-1.5v-2q0-.8.2-1.5l.4-1.3.6-1.3 1-1.9 1-1.8 1.1-1.4"/><path d="m118.5 286.5-.4-.7-.7-1-.7-1-.7-1.2-.8-1.2-.7-1-.7-1.2-.7-1-.8-1.1-.8-1.3-.9-1.3-1-1.6-1-1.4-.8-1.2-.7-1-.7-1-.7-1-.6-.9-.8-1.1-1-1.3-.7-1-.7-1-.9-1-.9-1.3-1-1.3L98 257l-1.3-1.5-1.3-1.6M101.1 299q0-.2-.3-.5l-.5-.8-.6-1-.7-1-.7-1-.9-1.3-.8-1.1-.8-1.1-.6-1-.7-1-.8-1.1-.8-1.1-.8-1.2-1-1.5-1-1.5-1-1.4-.8-1.3-.8-1-.6-1-.7-1-.7-1.1-.7-1.1-.7-1.1-.8-1-.7-1.2-.7-1-.7-1-.7-1-.8-1.1-.8-1.2-.8-1-.7-1-.7-.8-.5-.7-.4-.5-.6-.7-.7-.8-.6-.8-.7-.7-.6-.8-.6-.7-.5-.5-.3-.4-.5-.6-.5-.8-.5-1.1M117.2 199.5l-.1.3-.5.7-.7 1-1 1.6-1 1.6-1 1.4-.8 1.1-.7 1.1-.8 1.2-.7 1-.6.8-.6.9-.9 1.3-1.2 1.6-1.2 1.6-1 1.4q-.6.6-1 1.3l-1 1.1-.7 1-.8 1-.7 1-.7 1-.8 1-1 1.3-1.2 1.7-1.1 1.6-1 1.3-.8 1.2M99.4 188.3q-.4 1-1 1.8l-1.2 1.2-1 1.1-.8 1.4-.9 1.3-.9 1.3-1 1.4-1 1.4-1 1.4-1 1.4-.8 1.4-1 1.4-1 1.5-1.1 1.7-1 1.6-1 1.6-1 1.4-.6 1-.6 1-.6 1-.7 1.2-.8 1.3-.7 1-.6 1-.5 1-.6.9-.8 1.2-.8 1.2-.7 1-.7 1-.6 1-.7 1-.8 1.3-.8 1.2-.8 1.1-.9 1.3-.8 1q-.3.6-1 1.2M167.3 254h-24.9l-1.3.1h-7l-1.3.1H125l-1.3-.1h-1.4l-1.3-.1H113.7l-1.2-.1H109.9l-1.4-.1H95.5M168 233h-2.7l-2.8-.2h-5.4l-2.1.1h-2.3l-2.5.1H126l-2.2-.1h-9.4l-1.7.1-2.5.1h-5.4l-2.2.1h-6l-3 .1"/></g></svg>