<svg xmlns="http://www.w3.org/2000/svg" viewBox="-139.7 179.7 126.2 126.9"  width="{{size}}" height="{{size}}"><g fill="none" stroke="currentColor" stroke-linecap="round" stroke-linejoin="round" stroke-width="5.1"><path d="m-122 233.4-2.6-.1h-1.5l-1.4.3-1 .3-1 .3-.7.3-.4.2-.3.2-.6.5-.7.6-.7.7-.5.6-.3.6-.4 1-.4 1-.3 1q0 .6-.2 1v.8l-.1.7v2.2l.3 1.2.3 1.1.5 1.2.6 1.1.6 1 .6.5.5.5.6.4.7.3.6.3.5.2.9.2 1 .2.8.2h1l1 .1h1.1l1 .1h1.4M-54.8 187l1 .6-.3-.2-.9-.6-.8-.7q-.4-.5-1-.8-.5-.4-1.2-.5l-1.3-.3-1.3-.2h-4.1l-1 .3-1 .3-1.2.8q-.8.6-1.3 1.2l-1 1.2-.7 1.1-.3.8-.3.6-.2 1-.2 1.3-.2 1.3v1.5l.3 1q0 .4.2.7 0 .3.2.5l.1.3.7.8M-70 284.4l-.4.5-.6.9-.4.6-.3.6-.2.3-.2.7q-.3.8-.4 2v3l.5 1.8.5 1.5.5 1.2q.3.7.6 1l.4.6.5.5.6.5.5.3.4.3.5.2.7.4.8.3.6.1.4.1 1.5.2 1.7.1h1.1l1-.2.5-.1 1-.4 1.8-.7 1.3-.8.7-.7.4-.5.6-1 .7-1.4M-22.3 254l.8-1q.5-.6.9-1.6l.8-1.9.6-1.2.3-.6.2-.3.3-.9.3-1 .1-1.5v-2l-.3-1.5-.3-1.3-.6-1.1-1-1.8-1-1.7-1.2-1.2"/><path d="m-71.6 286.8.4-.8.7-1 .7-1 .7-1.2.8-1.1.7-1.2.7-1 .7-1 .8-1.2.8-1.3.9-1.3 1-1.5 1-1.5.8-1.2.7-1 .7-1 .6-.9.7-1 .8-1.1 1-1.3.7-1 .7-1 .8-1 1-1.3 1-1.3 1.1-1.4 1.2-1.5 1.3-1.6M-54.2 299.2l.8-1.3 1.3-2 1.5-2.3 1.5-2.4 1.2-1.8.9-1.4.8-1.2.8-1.2 1-1.5 1-1.5 1-1.4 1-1.5 1.2-1.8 1.4-2.1 1.4-2.2 1.5-2.1 1.5-2.1 1.4-1.9 1.2-1.7 1.5-2 1.3-1.5 1.3-1.6 1.5-2 1.7-2 1.5-1.9 1.2-1.7q.8-1.1 1.9-3.2M-70.4 199.7l.1.3.5.7.7 1.1 1 1.5 1 1.6 1 1.4.8 1.1.7 1.1.8 1.2.7 1 .6.8.6 1 1 1.2 1.1 1.6 1.2 1.6 1 1.4q.6.6 1 1.3l1 1.1.7 1 .8 1 .8 1 .6 1q.4.3.8 1l1 1.3 1.3 1.7 1 1.6 1 1.3.8 1.2M-52.7 188.5q.7 1 1.5 1.6l1.2 1.1 1 1 .9 1.3.8 1.3.9 1.3.9 1.3 1 1.4.8 1.4 1 1.5.8 1.3 1 1.5 1 1.5 1 1.6 1 1.7 1 1.7.8 1.4.7 1 .5 1 .7 1 .7 1.3.8 1.4.7 1 .6 1 .6 1 .6 1 .8 1.2.8 1.2.8 1 .7 1.1.7 1 .8 1.1 1 1.4 1 1.3 1 1.2 1 1.4.8 1.1 1 1.4M-120.4 254.3l1.4.1 1.7.2h3.3l1.4.1h3.3l1.7.1h7l1.1.1H-65.4l1.1-.1 1.4-.1h1.4l1.4-.1h1.3l1.2-.1h1.4l1.4-.2h1.5l2.3-.2h2.3M-121.2 233.3h.7l1.8.1h2.7l2.9.2h2.3l2.1.2H-104l2.3.1h10.9l2.2-.1h19l1.8.1H-55.7l2.2-.1 2-.1h1.8l3.1-.2"/></g></svg>