<svg viewBox="0 0 32 32" fill="currentColor" width="{{size}}" height="{{size}}" xmlns="http://www.w3.org/2000/svg"><path d="M19.49 0a3.6 3.6 0 0 0-2.34 1.25 3.94 3.94 0 0 0-.75 1.94c-.05.54.06 1.1.38 1.56 1.56 2.79 3.67 5.2 5.52 7.8.05.12.38.39.08.34-6.36.19-12.72-.12-19.07-.14-.68.02-1.37.2-1.95.54-.34.3-.72.57-.9 1a4.09 4.09 0 0 0-.04 3.68c.34.66.94 1.19 1.67 1.36.83.22 1.7.18 2.55.23 5.7.22 11.4.23 17.08 0-1.63 2.06-3.06 4.26-4.5 6.46a4.28 4.28 0 0 0-.92 2.3 3.1 3.1 0 0 0 .9 2.75c.68.62 1.62.9 2.53.93.8-.07 1.61-.32 2.21-.87.65-.58 1.04-1.36 1.52-2.07 1.59-2.44 3.23-4.84 4.93-7.2 1.11-1.41 2.35-2.78 3.09-4.45.1-.27.24-.54.3-.83a3.72 3.72 0 0 0-.47-2.32c-2.65-3.72-4.95-7.68-7.46-11.5a6.3 6.3 0 0 0-.78-1A5.53 5.53 0 0 0 21.15.24 5.23 5.23 0 0 0 19.5 0Zm3.17 3.36c2.39 3.63 4.67 7.32 7.13 10.9.17.23.28.5.43.74.25.45.3 1 .18 1.5-.13.54-.45 1.01-.69 1.5-2.63 3.45-5.13 7-7.54 10.6-.36.52-.7 1.06-1.07 1.56-.39.4-.95.67-1.5.59-.7-.1-1.3-.54-1.78-1.04a2.58 2.58 0 0 1-.15-1.8c.07-.24.17-.46.32-.66 1.28-1.91 2.53-3.84 3.88-5.7l1.85-2.36c.3-.44-.17-1.1-.7-1-3.75.2-7.5.3-11.26.21-2.3-.03-4.61.09-6.91-.02-.89-.06-1.8-.12-2.62-.45-.41-.16-.83-.48-.87-.95 0-.27-.1-.53-.1-.8-.06-.62.1-1.32.63-1.69.27-.19.6-.24.92-.33.37-.09.75-.04 1.12-.03 2.09 0 4.17.17 6.26.12 4.32-.04 8.64.1 12.96-.07.27-.03.57.03.83-.1.38-.2.39-.73.2-1.08-1.54-2.26-3.43-4.54-4.77-6.51-.57-.74-1.18-1.48-1.58-2.33a1.25 1.25 0 0 1-.11-.8c.07-.65.32-1.36.91-1.72.63-.37 1.41-.23 2.04.06.8.36 1.47.97 2 1.66z"/></svg>