<svg xmlns="http://www.w3.org/2000/svg" viewBox="-339.4 177.5 32 32" width="{{size}}" height="{{size}}"><path fill="currentColor" d="M-333.7 190h-1.9a.7.7 0 0 0 0 .1c-1.2-.2-2.1.4-2.9 1-.8.8-1 2-.8 3 .3 1 1 1.9 2.1 2.1 1.5.5 2.8.3 3.8.8a.7.7 0 0 0 .1 0c2 .5 4 1.4 4.8 3.1a.7.7 0 0 0 0 .1c1.3 1.8 1.7 4.2 1.7 6.6 0 .8.5 1.5 1 1.9.6.4 1.2.6 1.9.6 1.5.2 3-.6 3.4-2.2.2-1.6 0-3-.2-4.4-.2-1.4-.8-2.6-1-3.7-.9-2.7-2.7-4.8-4.8-6.5a17 17 0 0 0-7.1-2.4zm-2 1.3a.7.7 0 0 0 .1 0h1.9c2.2.3 4.5 1 6.4 2.3 2 1.5 3.6 3.5 4.4 5.7.2 1.3.7 2.4 1 3.6 0 1.3.3 2.7.1 4-.2.8-1 1.3-2 1.1-.5 0-1-.2-1.2-.4a1 1 0 0 1-.5-.9 12 12 0 0 0-2-7.2c-1-2.2-3.3-3.2-5.3-3.7-1.5-.7-3-.5-4-.8-.7-.2-1-.6-1.2-1.3-.1-.6 0-1.2.4-1.6.6-.5 1.2-.8 1.7-.7a.7.7 0 0 0 .1 0zm.6-13.8a.7.7 0 0 0-.1 0l-.2.1h-1.8c-.6.3-1.3.7-1.6 1.5-.4.6-.6 1.4-.6 2.2 0 .8.2 1.6.8 2.3a.7.7 0 0 0 .2.1 9 9 0 0 0 4.5.7c2.7-.3 5.4.4 8 1.2 2 .8 3.8 1.8 5.1 3.3 1.4 1.4 2.6 3 3.7 4.5.7 1.6 1.2 3.4 1.7 5.2.4 1.8 1 3.5.7 5a.7.7 0 0 0 0 .1c0 .9 0 2 .2 2.9.3 1 1 1.9 2.2 2.2 1 .2 1.9.1 2.8-.3.8-.4 1.6-1 1.8-2.2.6-3.8 0-7.6-.9-11.2-.4-1.9-1-3.7-2.2-5.3-1.8-3-4.1-5.6-6.9-7.6-1.5-1-3-2.2-4.8-2.7a14 14 0 0 0-5.7-1.5c-2.3-.3-4.6-.4-6.9-.5zm0 1.3c2.3.2 4.6.2 6.8.5a.7.7 0 0 0 .1 0c1.8 0 3.5.6 5.2 1.4a.7.7 0 0 0 .1 0c1.6.5 3 1.5 4.4 2.5a26 26 0 0 1 6.6 7.3c1 1.4 1.7 3 2 4.8.9 3.6 1.5 7.2 1 10.8-.2.6-.6 1-1.2 1.2-.5.3-1.3.3-1.9.2-.6-.2-1-.6-1.2-1.3-.2-.7-.2-1.6-.2-2.4.3-2-.3-3.8-.7-5.5a.7.7 0 0 0 0-.1c-.6-1.7-1-3.6-1.8-5.4a31.7 31.7 0 0 0-3.9-4.8 15.2 15.2 0 0 0-5.6-3.6c-2.7-.9-5.6-1.7-8.6-1.3-1.3.1-2.6 0-3.7-.5-.3-.4-.4-.8-.4-1.3 0-.6.1-1.2.4-1.6.2-.4.5-.7 1-.8h1.3a.7.7 0 0 0 .3 0zm1.4 11.3h-1.9c-1.2-.2-2.1.4-2.9 1-.8.8-1 2-.8 3 .3 1 1 1.9 2.1 2.1 1.5.5 2.8.3 3.8.8a.7.7 0 0 0 .1 0c2 .5 4 1.4 4.8 3.1a.7.7 0 0 0 0 .1c1.3 1.8 1.7 4.2 1.7 6.6 0 .8.5 1.5 1 1.9.6.4 1.2.6 1.9.6 1.5.2 3-.6 3.4-2.2.2-1.6 0-3-.2-4.4-.2-1.4-.8-2.6-1-3.7-.9-2.7-2.7-4.8-4.8-6.5a17 17 0 0 0-7.1-2.4zm-2 1.2a.7.7 0 0 0 .1 0h1.9c2.2.3 4.5 1 6.4 2.3 2 1.5 3.6 3.5 4.4 5.7.2 1.3.7 2.4 1 3.6 0 1.3.3 2.7.1 4-.2.8-1 1.3-2 1.1-.5 0-1-.2-1.2-.4a1 1 0 0 1-.5-.9 12 12 0 0 0-2-7.2c-1-2.2-3.3-3.2-5.3-3.7-1.5-.7-3-.5-4-.8-.7-.2-1-.6-1.2-1.3-.1-.6 0-1.2.4-1.6.6-.5 1.2-.8 1.7-.7a.7.7 0 0 0 .1 0zm0 11.3c-2.4-.3-4.2 2.2-3.4 4.3a3.7 3.7 0 0 0 2.8 2.5c1.2.3 2.6 0 3.4-1.1 1.6-1.5 1-4.2-.8-5.2-.6-.3-1.4-.5-2-.5zm-.2 1.3c.6 0 1.2.1 1.6.4 1 .6 1.4 2.2.5 3a.7.7 0 0 0 0 .2c-.6.7-1.4.8-2.2.6-.9-.2-1.6-.8-1.8-1.6-.5-1.2.6-2.8 2-2.6z"/></svg>