<svg xmlns="http://www.w3.org/2000/svg" viewBox="0 0 32 32" fill="currentColor" width="{{size}}" height="{{size}}"><path d="M30.7 1.4c-2.2 0-4.1 1-6 1.7-5.5 2-10.2 4.8-15.1 7.2l-5 2.5-3.9 2.3-.7 1c-.1.6.3 1 .7 1.2.4.4 1 .5 1.5.8 1.5.9 3.6 1 4.8 1.7l.7.1c.4 1.3.4 2.8.5 4 0 2.1.2 4.2.3 6.2.8 2.1 2.8-.7 3.5-1.5l2-2.3a64.2 64.2 0 0 0 2.2-2.6c1 .8 2.5 1.6 3.6 2.3l3.7 2.1c1 .5 1.9 1.1 3 1.5.4.1 1 .2 1.4-.1.9-.7 1.4-1.7 1.8-2.6.5-1.5.7-3 1-4.5.7-6.1 1.6-12.2 1.2-18 0-.9 0-1.8-.5-2.5-.2-.2-.4-.5-.7-.5zm-.3 1.4c.2.6.2 1.3.2 2 0 5.6 0 12.2-1.2 17.4-.3 1.5-.5 3-1 4.3-.7 1.2-.6 2.2-2 1.6-1-.4-1.8-1-2.7-1.4a49 49 0 0 1-6.6-4l-2-1.4c0-.6.6-1 1-1.5 1.7-2 3.5-4 5-6.2l2.3-3.1c.2-.4.5-.7.6-1.2.3-.6-.5-1-1-.7-.8.3-1.4.9-2.1 1.4l-3.6 2.6-3 2.3-4.4 2.8c-.6.3-1.2.8-1.9.9l-1.2-.3c-1.5-.3-3-1-4.3-1.5l-1-.5c.1-.3.5-.4.7-.6l3.2-1.9 6.5-3.2a107 107 0 0 1 13.6-6.4c1.8-.5 3.2-1.4 4.9-1.4zM21 11.5a72.5 72.5 0 0 1-4 5.1l-2.4 3c-.7.9-1 1.8-1.6 2.6l-2.8 4.9-.5 1-.4-6.3-.3-2c0-.3.5-.3.7-.5l4-2.5c1.1-.7 2.3-1.5 3.5-2.5 1.2-.9 2.5-1.7 3.7-2.7l.1-.1zm-6.7 11 .9.5-1.6 2-1.7 1.8 2.4-4.3z"/></svg>